# xmcd
#
# Track frame offsets: 
#        150
#        12456
#        24553
#        34896
#        47077
#        59049
#        70631
#        84524
#        96221
#        106019
#        118520
#        130840
#        138641
#        151748
#        165350
#        174528
#        186744
#        199231
#        211238
#        221933
#        234836
#        245435
#        256989
#        267031
#        277338
#        290780
#        301811
#        312581
#        322935
#        334064
#
# Disc length: 4620 seconds
#
# Revision: 0
# Processed by: cddbd v1.5.2PL0 Copyright (c) Steve Scherf et al.
# Submitted via: ExactAudioCopyFreeDBPlugin 1.0
#
DISCID=c0120a1e
DTITLE=Various Artist - The History of New Orleans Rhythm and Blues, Vo
DTITLE=lume 3:  Jazz, Blues and Creole Roots, 1953-1955
DYEAR=2013
DGENRE=Rhythm and Blues
TTITLE0=Ellis "Slow" Walsh - New Orleans is My Home
TTITLE1=Clarence Garlow - Route 90
TTITLE2=Lloyd Price - Tell Me Pretty Baby
TTITLE3=The Spiders - I Didn't Want to Do It
TTITLE4=Fats Matthews - Goin’ Down
TTITLE5=Guitar Slim - Feelin' Sad
TTITLE6=Mahalia Jackson - Walking to Jerusalem
TTITLE7=Clarence Garlow - Crawfishin'
TTITLE8=Bobby Mitchell and The Toppers - 4 X 11=44
TTITLE9=Fats Domino - Hey Little School Girl
TTITLE10=Ray Johnson - I’ll Never Let You Go
TTITLE11=Rose Mitchell - Baby Please Don't Go
TTITLE12=Ray Charles - Don't You Know
TTITLE13=Guitar Slim - The Story of My Life
TTITLE14=Dave Bartholomew - Cat Music
TTITLE15=Smiley Lewis - Blue Monday
TTITLE16=Tommy Ridgley - Jam Up
TTITLE17=Fats Domino - Please Don't Leave Me
TTITLE18=Pee Wee Crayton - Do Unto Others
TTITLE19=Champion Jack Dupree - Ain't No Meat on the Bone
TTITLE20=Guitar Slim - Later for You Baby
TTITLE21=Dave Collins and The Scrubs - Bluesy Me
TTITLE22=Jesse Allen - What a Party
TTITLE23=Willie Johnson - Say Baby
TTITLE24=Leonard Lee - When the Sun Goes Down
TTITLE25=The Pelicans - Ain't Gonna Do It
TTITLE26=Blanche Thomas - You Ain't So Such a Much
TTITLE27=Clarence Samuels - Crazy with the Heat
TTITLE28=Earl King - Beggin' at Your Mercy
TTITLE29=Jackson Gospel Singers - Heaven Bound Train
EXTD=
EXTT0=
EXTT1=
EXTT2=
EXTT3=
EXTT4=
EXTT5=
EXTT6=
EXTT7=
EXTT8=
EXTT9=
EXTT10=
EXTT11=
EXTT12=
EXTT13=
EXTT14=
EXTT15=
EXTT16=
EXTT17=
EXTT18=
EXTT19=
EXTT20=
EXTT21=
EXTT22=
EXTT23=
EXTT24=
EXTT25=
EXTT26=
EXTT27=
EXTT28=
EXTT29=
PLAYORDER=
